<svg viewBox="0 0 121 20" fill="none" xmlns="http://www.w3.org/2000/svg">
<g clip-path="url(#clip0_151_4)">
<path d="M0 17.5149L1.19741 14.9799C2.48088 15.8727 4.39379 16.4976 6.22064 16.4976C8.30812 16.4976 9.15638 15.8327 9.15638 14.9399C9.15638 12.2169 0.304885 14.0871 0.304885 8.68571C0.304885 6.21174 2.39236 4.15598 6.71976 4.15598C8.63267 4.15598 10.5898 4.59297 12.0036 5.44347L10.9169 7.99968C9.50307 7.23141 8.04503 6.85549 6.69763 6.85549C4.61016 6.85549 3.80614 7.60262 3.80614 8.5189C3.80614 11.1996 12.6576 9.35061 12.6576 14.6909C12.6576 17.1226 10.548 19.2019 6.19851 19.2019C3.78402 19.2019 1.34739 18.5158 0 17.5173L0 17.5149Z" fill="#191A21"/>
<path d="M13.96 13.3562C13.96 9.98947 16.6793 7.60008 20.4855 7.60008C22.9442 7.60008 24.8793 8.61739 25.7275 10.4476L23.0967 11.7985C22.4648 10.7389 21.5305 10.2597 20.4658 10.2597C18.7471 10.2597 17.3998 11.4038 17.3998 13.3562C17.3998 15.3086 18.7471 16.4528 20.4658 16.4528C21.5305 16.4528 22.4672 15.9947 23.0967 14.9139L25.7275 16.286C24.8793 18.0739 22.9442 19.1124 20.4855 19.1124C16.6793 19.1124 13.96 16.723 13.96 13.3562Z" fill="#191A21"/>
<path d="M38.0364 12.5669V18.948H34.8622V17.5548C34.2303 18.5721 33.0132 19.1125 31.2945 19.1125C28.553 19.1125 26.9229 17.6582 26.9229 15.7246C26.9229 13.791 28.3809 12.379 31.9461 12.379H34.6433C34.6433 10.9858 33.7729 10.1752 31.9461 10.1752C30.7069 10.1752 29.4234 10.5699 28.5751 11.2137L27.358 8.94879C28.6415 8.07714 30.5323 7.59785 32.4034 7.59785C35.971 7.59785 38.0364 9.17668 38.0364 12.5646V12.5669ZM34.6433 15.4145V14.2703H32.3173C30.729 14.2703 30.2299 14.8318 30.2299 15.5789C30.2299 16.3895 30.9478 16.9299 32.1428 16.9299C33.2738 16.9299 34.2524 16.4318 34.6433 15.4121V15.4145Z" fill="#191A21"/>
<path d="M41.1025 3.52858H44.4956V18.948H41.1025V3.52858Z" fill="#191A21"/>
<path d="M59.0445 14.2727H50.1931C50.5201 15.6659 51.7593 16.5164 53.5419 16.5164C54.7811 16.5164 55.6736 16.164 56.4776 15.4357L58.2823 17.3059C57.1956 18.49 55.563 19.1149 53.4534 19.1149C49.4087 19.1149 46.7754 16.6833 46.7754 13.3588C46.7754 10.0343 49.4505 7.60263 53.0182 7.60263C56.5858 7.60263 59.1085 9.80641 59.1085 13.4011C59.1085 13.6501 59.0642 14.0025 59.0421 14.2727H59.0445ZM50.1488 12.3814H55.9121C55.6736 10.9694 54.5647 10.0531 53.0403 10.0531C51.5159 10.0531 50.3873 10.9459 50.1488 12.3814Z" fill="#191A21"/>
<path d="M75.1042 11.4459H78.3227V17.3477C76.6483 18.553 74.342 19.1968 72.1685 19.1968C67.3837 19.1968 63.8604 16.0579 63.8604 11.6738C63.8604 7.28974 67.3837 4.15088 72.2349 4.15088C74.91 4.15088 77.1278 5.02252 78.6079 6.66479L76.3459 8.65947C75.237 7.53644 73.9535 7.01721 72.4094 7.01721C69.4515 7.01721 67.428 8.90851 67.428 11.6715C67.428 14.4344 69.4515 16.3257 72.3652 16.3257C73.3216 16.3257 74.2141 16.1589 75.1067 15.7031V11.4436L75.1042 11.4459Z" fill="url(#paint0_linear_151_4)"/>
<path d="M84.738 7.14406H79.8672V4.3999H93.1346V7.14406H88.2638V18.9477H84.7404V7.14406H84.738Z" fill="url(#paint1_linear_151_4)"/>
<path d="M112.082 18.9478H115.473V10.7412L112.082 13.9835V18.9478Z" fill="url(#paint2_linear_151_4)"/>
<path d="M99.2822 13.7837V10.0904L105.09 15.6398H105.439L115.227 6.28662V9.97996L105.264 19.4999L99.2822 13.7837Z" fill="url(#paint3_linear_151_4)"/>
<path d="M117.857 0.499863L111.841 2.2596L112.903 3.13829C110.562 5.31858 107.597 8.22955 105.264 10.4498C103.552 8.81457 100.624 6.01872 98.9349 4.4023H95.1533V18.9501H98.5439V8.39166C98.9398 8.76993 104.688 14.2629 105.264 14.8127C107.993 12.2048 112.492 7.85834 115.168 5.30214L115.957 6.28891C116.409 4.85809 117.321 2.2831 117.857 0.502212V0.499863Z" fill="url(#paint4_linear_151_4)"/>
</g>
<defs>
<linearGradient id="paint0_linear_151_4" x1="63.8604" y1="11.6738" x2="78.6079" y2="11.6738" gradientUnits="userSpaceOnUse">
<stop stop-color="#24C6A6"/>
<stop offset="1" stop-color="#43FFDA"/>
</linearGradient>
<linearGradient id="paint1_linear_151_4" x1="79.8672" y1="11.6738" x2="93.1346" y2="11.6738" gradientUnits="userSpaceOnUse">
<stop stop-color="#24C6A6"/>
<stop offset="1" stop-color="#43FFDA"/>
</linearGradient>
<linearGradient id="paint2_linear_151_4" x1="112.082" y1="14.8445" x2="115.473" y2="14.8445" gradientUnits="userSpaceOnUse">
<stop stop-color="#24C6A6"/>
<stop offset="1" stop-color="#43FFDA"/>
</linearGradient>
<linearGradient id="paint3_linear_151_4" x1="99.2822" y1="12.8933" x2="115.227" y2="12.8933" gradientUnits="userSpaceOnUse">
<stop stop-color="#24C6A6"/>
<stop offset="1" stop-color="#43FFDA"/>
</linearGradient>
<linearGradient id="paint4_linear_151_4" x1="96.643" y1="10.0946" x2="117.857" y2="9.6898" gradientUnits="userSpaceOnUse">
<stop stop-color="#24C6A6"/>
<stop offset="1" stop-color="#43FFDA"/>
</linearGradient>
<clipPath id="clip0_151_4">
<rect width="121" height="19" fill="#191A21" transform="translate(0 0.5)"/>
</clipPath>
</defs>
</svg>
